<?xml version="1.0" encoding="UTF-8"?>
<svg version="1.1" xmlns="http://www.w3.org/2000/svg" width="582" height="246">
<path d="M0 0 C192.06 0 384.12 0 582 0 C582 81.18 582 162.36 582 246 C389.94 246 197.88 246 0 246 C0 164.82 0 83.64 0 0 Z " fill="#01276C" transform="translate(0,0)"/>
<path d="M0 0 C81.18 0 162.36 0 246 0 C246 81.18 246 162.36 246 246 C164.82 246 83.64 246 0 246 C0 164.82 0 83.64 0 0 Z " fill="#EA0001" transform="translate(0,0)"/>
<path d="M0 0 C25.47460978 -2.82113521 25.47460978 -2.82113521 32.29101562 1.42822266 C35.96546652 5.42371121 37.86016953 10.33457423 39.84082031 15.32666016 C41.85995843 19.98326554 44.68891205 24.12281249 47.4375 28.375 C48.54221332 30.14697124 49.64247491 31.92172556 50.73828125 33.69921875 C51.55159912 35.01672119 51.55159912 35.01672119 52.38134766 36.36083984 C55.50444551 41.45294962 58.5671274 46.58111755 61.63183594 51.70849609 C65.22206241 57.71300273 68.85294135 63.69102866 72.50878906 69.65576172 C75.35451787 74.30137891 78.1881679 78.95415326 81.01171875 83.61328125 C81.36560669 84.19706039 81.71949463 84.78083954 82.08410645 85.38230896 C83.54690479 87.79552798 85.00962343 90.20879322 86.47076416 92.62301636 C90.26680574 98.89449282 94.07989342 105.15209192 97.98046875 111.359375 C98.58777832 112.32770264 99.19508789 113.29603027 99.82080078 114.29370117 C100.95519989 116.09706819 102.09522776 117.89691061 103.24169922 119.69262695 C103.74072754 120.48628662 104.23975586 121.27994629 104.75390625 122.09765625 C105.19033447 122.78351807 105.6267627 123.46937988 106.07641602 124.17602539 C107 126 107 126 107 129 C102.98060937 129.22363929 98.96365228 129.38628486 94.93945312 129.49438477 C93.57325144 129.53946167 92.2074797 129.6007517 90.84277344 129.67895508 C79.63877754 130.30457967 79.63877754 130.30457967 76.01269531 127.41796875 C74.39934012 125.03234401 73.22053204 122.60836939 72 120 C70.74824394 117.92327677 69.47589548 115.85888069 68.1875 113.8046875 C66.78971451 111.49594067 65.39397225 109.18604273 64 106.875 C63.24501729 105.62681663 62.48980521 104.37877197 61.734375 103.13085938 C60.20893771 100.61077273 58.68428831 98.09021216 57.16015625 95.56933594 C54.1177446 90.53954248 51.05909237 85.51966003 48 80.5 C43.19053919 72.60331015 38.38871986 64.70200579 33.59133911 56.79797363 C31.43373062 53.24332858 29.27556304 49.68902292 27.11741638 46.13470459 C25.42570408 43.34850454 23.73431008 40.56211224 22.04345703 37.77539062 C20.21746826 34.7663202 18.39031864 31.7579592 16.5625 28.75 C15.99644043 27.81776611 15.43038086 26.88553223 14.84716797 25.92504883 C12.23162604 21.62710005 9.59758014 17.34327694 6.91015625 13.08984375 C6.43698975 12.34057617 5.96382324 11.59130859 5.47631836 10.81933594 C4.60257389 9.44091919 3.72475049 8.06507583 2.84204102 6.69238281 C0 2.21724222 0 2.21724222 0 0 Z " fill="#FDFAFA" transform="translate(34,42)"/>
<path d="M0 0 C10.56 0 21.12 0 32 0 C39.45673245 12.95607263 46.79245925 25.96888319 53.96655273 39.08300781 C57.2190237 45.01939995 60.51282266 50.91867352 63.9453125 56.75390625 C64.86195679 58.32422607 64.86195679 58.32422607 65.79711914 59.92626953 C66.9437731 61.88213039 68.10372442 63.83027781 69.27905273 65.76904297 C69.78637939 66.63803223 70.29370605 67.50702148 70.81640625 68.40234375 C71.26443604 69.14991943 71.71246582 69.89749512 72.17407227 70.66772461 C73.28620267 73.80818626 72.63008956 75.71711148 72 79 C71.7872806 82.76554412 71.74413855 86.53398152 71.68359375 90.3046875 C71.6524221 91.92336227 71.6524221 91.92336227 71.62062073 93.57473755 C71.55544887 97.00809611 71.4963911 100.44152853 71.4375 103.875 C71.39428399 106.20834085 71.35066873 108.54167434 71.30664062 110.875 C71.19905253 116.58325886 71.09973825 122.29157702 71 128 C62.09 128 53.18 128 44 128 C44.09023437 124.76445312 44.18046875 121.52890625 44.2734375 118.1953125 C44.92002591 84.96155996 44.92002591 84.96155996 30.86474609 55.64257812 C27.90668017 51.45062924 25.48674818 46.98130982 23 42.5 C22.03419881 40.82066646 21.0667269 39.14229275 20.09765625 37.46484375 C13.07251383 25.16912436 6.33224402 12.66448804 0 0 Z " fill="#FEFCFC" transform="translate(112,43)"/>
<path d="M0 0 C4.49886621 5.62358277 4.49886621 5.62358277 6.2265625 8.609375 C6.61360352 9.27316162 7.00064453 9.93694824 7.39941406 10.62084961 C8.0060791 11.67477905 8.0060791 11.67477905 8.625 12.75 C9.50771647 14.26698297 10.39053188 15.78390836 11.2734375 17.30078125 C11.72299805 18.07631348 12.17255859 18.8518457 12.63574219 19.65087891 C14.82570657 23.42178751 17.03811683 27.17942134 19.25 30.9375 C19.63752441 31.59782227 20.02504883 32.25814453 20.42431641 32.93847656 C20.80507324 33.58655273 21.18583008 34.23462891 21.578125 34.90234375 C21.93729004 35.53239822 22.29645508 36.1624527 22.66650391 36.81159973 C23.95774074 39.01848653 23.95774074 39.01848653 25.52841187 40.9919281 C31.20114101 48.87733918 30.77545557 56.67844727 30.5859375 65.9453125 C30.57472561 67.56768208 30.56619485 69.19007219 30.56021118 70.81246948 C30.53746892 75.05112305 30.47867636 79.28851289 30.4119873 83.52667236 C30.3502458 87.86396191 30.32312868 92.20145873 30.29296875 96.5390625 C30.22891442 105.02668191 30.12351352 113.51303742 30 122 C20.1 122 10.2 122 0 122 C0 81.74 0 41.48 0 0 Z " fill="#FEFDFD" transform="translate(34,49)"/>
<path d="M0 0 C2.63041746 2.5205821 4.1941269 4.93430379 5.8984375 8.171875 C6.74341797 9.76128906 6.74341797 9.76128906 7.60546875 11.3828125 C8.18941406 12.49398437 8.77335937 13.60515625 9.375 14.75 C10.50485656 16.89218667 11.6378155 19.03273914 12.7734375 21.171875 C13.07363297 21.75944077 13.37382843 22.34700653 13.68312073 22.95237732 C15.67614158 26.7821164 17.87823908 30.31991599 20.34741211 33.86352539 C31.08868661 49.88447315 31.65915273 64.22800734 30.89263916 82.78369141 C30.75693222 86.43093177 30.69971851 90.07945124 30.63476562 93.72851562 C30.49749162 100.82199123 30.2772433 107.91049268 30 115 C27.57126491 112.6497321 25.91248932 110.39109193 24.21484375 107.45703125 C23.68882568 106.5554126 23.16280762 105.65379395 22.62084961 104.72485352 C22.06534424 103.76377686 21.50983887 102.8027002 20.9375 101.8125 C16.49021193 94.19401536 11.97630374 86.63613404 7.24780273 79.1887207 C6.52907088 78.05416781 5.81941626 76.91377782 5.12188721 75.7660675 C3.90196613 73.78894905 3.90196613 73.78894905 1.8918457 71.24560547 C-1.42783815 65.35830423 -0.48720755 58.21440457 -0.390625 51.66015625 C-0.38315516 50.1680121 -0.37746574 48.67585807 -0.37347412 47.18370056 C-0.35827597 43.27575103 -0.31904585 39.3684058 -0.2746582 35.46069336 C-0.23357879 31.46541516 -0.21543621 27.47003835 -0.1953125 23.47460938 C-0.15254466 15.6494655 -0.08436564 7.82481775 0 0 Z " fill="#04256A" transform="translate(112,50)"/>
<path d="M0 0 C10.56 0 21.12 0 32 0 C30.68929939 3.93210183 29.62459706 6.98432732 27.7421875 10.52734375 C27.28924316 11.38682617 26.83629883 12.24630859 26.36962891 13.13183594 C25.87640137 14.05770508 25.38317383 14.98357422 24.875 15.9375 C23.79602142 17.98262281 22.71794703 20.02822283 21.640625 22.07421875 C21.05861328 23.17813965 20.47660156 24.28206055 19.87695312 25.41943359 C17.8505792 29.27558292 15.85307919 33.1464122 13.859375 37.01953125 C13.50815582 37.70172226 13.15693665 38.38391327 12.79507446 39.08677673 C11.39799508 41.8015437 10.00158949 44.51665399 8.60687256 47.2326355 C5.32261714 53.62649891 2.02567037 60.01402288 -1.3515625 66.359375 C-1.81643066 67.23561523 -2.28129883 68.11185547 -2.76025391 69.01464844 C-4 71 -4 71 -6 72 C-7.98160104 68.51628516 -9.95690367 65.02908326 -11.92651367 61.53857422 C-12.59700392 60.35238451 -13.26918792 59.16715049 -13.94311523 57.98291016 C-14.91317574 56.27760822 -15.87659082 54.56853148 -16.83984375 52.859375 C-17.42113037 51.83295898 -18.00241699 50.80654297 -18.60131836 49.74902344 C-20.76719054 45.4921338 -20.76719054 45.4921338 -21 43 C-20.26245117 40.75195312 -20.26245117 40.75195312 -19.04296875 38.28125 C-18.5941333 37.35771729 -18.14529785 36.43418457 -17.68286133 35.48266602 C-17.18939209 34.49838623 -16.69592285 33.51410645 -16.1875 32.5 C-15.69209717 31.48929443 -15.19669434 30.47858887 -14.6862793 29.43725586 C-13.13686353 26.28504708 -11.57021377 23.14189321 -10 20 C-9.0127936 18.01183157 -8.02580629 16.02355432 -7.0390625 14.03515625 C-4.71021086 9.34766431 -2.35454162 4.67495944 0 0 Z " fill="#FDFBFB" transform="translate(193,43)"/>
<path d="M0 0 C26.72157773 0 26.72157773 0 31.83984375 4.68359375 C32.38318359 5.55177734 32.38318359 5.55177734 32.9375 6.4375 C33.31777344 7.01371094 33.69804687 7.58992187 34.08984375 8.18359375 C36.87899307 13.7499218 36.25982262 20.05656605 36.3125 26.125 C36.34150391 27.21554688 36.37050781 28.30609375 36.40039062 29.4296875 C36.45376422 36.29435239 36.22089565 43.29656095 32 49 C24 54 24 54 0 54 C0 36.18 0 18.36 0 0 Z " fill="#F6F8FA" transform="translate(470,138)"/>
<path d="M0 0 C26.91891892 0 26.91891892 0 32.375 5.3125 C36.48750144 12.11394469 36.33504333 18.63812748 36.3125 26.375 C36.32861328 27.47328125 36.34472656 28.5715625 36.36132812 29.703125 C36.36602399 37.53582637 35.74746671 43.58423058 30.6875 49.875 C21.69342051 56.98659774 11.41800118 54 0 54 C0 36.18 0 18.36 0 0 Z " fill="#F6F8FA" transform="translate(287,55)"/>
<path d="M0 0 C3.3 0 6.6 0 10 0 C11.65229552 3.30459104 11.88152939 7.0011178 12.4375 10.625 C12.56874268 11.46716064 12.69998535 12.30932129 12.83520508 13.17700195 C14.0512585 21.09882764 15.06681385 29.0404711 16 37 C17.71537459 29.00492302 18.95555847 20.96580289 20.125 12.875 C20.30675781 11.63234375 20.48851562 10.3896875 20.67578125 9.109375 C21.11952274 6.07324902 21.56087576 3.03679662 22 0 C23.81242052 -0.02687279 25.62495233 -0.04633715 27.4375 -0.0625 C28.44683594 -0.07410156 29.45617187 -0.08570313 30.49609375 -0.09765625 C33 0 33 0 34 1 C34.26151235 2.50060949 34.46733841 4.01101538 34.6484375 5.5234375 C34.76703125 6.46316406 34.885625 7.40289062 35.0078125 8.37109375 C35.24778486 10.33427185 35.48488729 12.29780347 35.71875 14.26171875 C36.5811041 21.04128982 38.0369372 27.45485746 40 34 C40.64613605 29.6458782 41.29185493 25.29169463 41.9375 20.9375 C42.11990234 19.70837891 42.30230469 18.47925781 42.49023438 17.21289062 C43.34054622 11.4771507 44.1895332 5.74151747 45 0 C48.63 0 52.26 0 56 0 C54.10383719 12.21411259 52.18555961 24.41880838 49.875 36.5625 C49.71676758 37.39869873 49.55853516 38.23489746 49.39550781 39.09643555 C48.42494759 44.11252275 47.28044868 49.05384204 46 54 C42.04 54 38.08 54 34 54 C31.35099065 44.35003736 30.161847 34.47517607 28.9375 24.5625 C28.84662109 23.83095703 28.75574219 23.09941406 28.66210938 22.34570312 C28.44083632 20.56387277 28.22033671 18.78194639 28 17 C27.85377197 17.9787207 27.70754395 18.95744141 27.55688477 19.96582031 C27.01279054 23.60397499 26.46612988 27.24174022 25.91870117 30.87939453 C25.68232553 32.45253191 25.44664192 34.02577344 25.21166992 35.59912109 C24.87341163 37.86323472 24.5326498 40.12695963 24.19140625 42.390625 C24.08719864 43.09181458 23.98299103 43.79300415 23.87562561 44.51544189 C23.38729634 47.73937381 22.79221532 50.83113874 22 54 C17.71 54 13.42 54 9 54 C8.76925781 52.62972656 8.53851563 51.25945312 8.30078125 49.84765625 C6.27187099 37.93466288 4.07930776 26.07556672 1.57543945 14.25219727 C0.57747986 9.43153173 -0.30493582 4.95520706 0 0 Z " fill="#F6F8F9" transform="translate(325,138)"/>
<path d="M0 0 C27.83870968 0 27.83870968 0 32.9140625 4.81640625 C34.32278996 7.64906327 34.39887799 9.78162608 34.375 12.9375 C34.38660156 14.46697266 34.38660156 14.46697266 34.3984375 16.02734375 C33.81497972 20.38039641 32.17137221 23.02943446 28.8125 25.8125 C28.214375 26.204375 27.61625 26.59625 27 27 C27.78375 27.4125 28.5675 27.825 29.375 28.25 C32.28537647 30.19025098 32.84395255 30.78069298 34 34 C34.3543272 36.8487609 34.4632825 39.69487235 34.5625 42.5625 C34.7268301 48.36406724 34.7268301 48.36406724 36 54 C32.04 54 28.08 54 24 54 C22.87616579 51.75233158 22.84900724 50.43208095 22.7890625 47.9375 C22.74652344 46.74253906 22.74652344 46.74253906 22.703125 45.5234375 C22.65104859 43.84136937 22.60677489 42.15904152 22.5703125 40.4765625 C22.52390625 39.28160156 22.52390625 39.28160156 22.4765625 38.0625 C22.45674316 37.33160156 22.43692383 36.60070312 22.41650391 35.84765625 C22.13050689 33.58888678 22.13050689 33.58888678 19 32 C16.36 31.67 13.72 31.34 11 31 C11 38.59 11 46.18 11 54 C7.37 54 3.74 54 0 54 C0 36.18 0 18.36 0 0 Z " fill="#F8F9FA" transform="translate(428,138)"/>
<path d="M0 0 C4.62 0 9.24 0 14 0 C17.20865375 9.65326895 19.89096064 19.33450606 22.18310547 29.24609375 C23.73770655 35.9641471 25.46321102 42.61596079 27.30078125 49.26171875 C28 52 28 52 28 54 C24.37 54 20.74 54 17 54 C15.48940272 49.9402698 15 47.45389333 15 43 C10.05 43.33 5.1 43.66 0 44 C-0.66 47.3 -1.32 50.6 -2 54 C-5.96 54 -9.92 54 -14 54 C-13.75910645 53.03787598 -13.51821289 52.07575195 -13.27001953 51.08447266 C-11.65398231 44.62676378 -10.03993989 38.16859882 -8.43963623 31.70697021 C-7.75779354 28.9545455 -7.0740403 26.20259686 -6.39013672 23.45068359 C-6.04231895 22.04919229 -5.6953339 20.64749411 -5.34912109 19.24560547 C-4.83654598 17.17098751 -4.32090597 15.09715148 -3.8046875 13.0234375 C-3.35585205 11.21238525 -3.35585205 11.21238525 -2.89794922 9.36474609 C-2.05540452 6.20760877 -1.03331494 3.09994482 0 0 Z " fill="#F8FAFA" transform="translate(395,138)"/>
<path d="M0 0 C4.62 0 9.24 0 14 0 C17.0077994 9.25476739 19.44855858 18.57434794 21.77441406 28.02001953 C23.53368356 35.16382205 25.38406216 42.27378687 27.3359375 49.3671875 C28 52 28 52 28 54 C24.37 54 20.74 54 17 54 C15 49 15 49 15 43 C10.05 43.33 5.1 43.66 0 44 C-0.66 47.3 -1.32 50.6 -2 54 C-5.96 54 -9.92 54 -14 54 C-11.5349715 43.99393038 -8.98575425 34.00970937 -6.41430664 24.0305481 C-6.05673943 22.64283041 -5.69947688 21.25503418 -5.3425293 19.86715698 C-4.83091306 17.87862717 -4.31799107 15.8904386 -3.8046875 13.90234375 C-3.35585205 12.16198853 -3.35585205 12.16198853 -2.89794922 10.38647461 C-1.9760923 6.90983586 -0.99896309 3.45513677 0 0 Z " fill="#F9FAFA" transform="translate(464,55)"/>
<path d="M0 0 C4.62 0 9.24 0 14 0 C17.0077994 9.25476739 19.44855858 18.57434794 21.77441406 28.02001953 C23.53368356 35.16382205 25.38406216 42.27378687 27.3359375 49.3671875 C28 52 28 52 28 54 C24.37 54 20.74 54 17 54 C15.80712589 50.12315913 15 47.08378077 15 43 C10.05 43.33 5.1 43.66 0 44 C-0.66 47.3 -1.32 50.6 -2 54 C-5.96 54 -9.92 54 -14 54 C-11.5349715 43.99393038 -8.98575425 34.00970937 -6.41430664 24.0305481 C-6.05673943 22.64283041 -5.69947688 21.25503418 -5.3425293 19.86715698 C-4.83091306 17.87862717 -4.31799107 15.8904386 -3.8046875 13.90234375 C-3.35585205 12.16198853 -3.35585205 12.16198853 -2.89794922 10.38647461 C-1.9760923 6.90983586 -0.99896309 3.45513677 0 0 Z " fill="#F8F9FA" transform="translate(297,138)"/>
<path d="M0 0 C5.35795455 4.57386364 5.35795455 4.57386364 6.5625 8.1875 C6.60204234 10.52049825 6.60651732 12.85458189 6.5625 15.1875 C3.2625 15.1875 -0.0375 15.1875 -3.4375 15.1875 C-3.911875 14.053125 -4.38625 12.91875 -4.875 11.75 C-6.07372083 8.43009834 -6.07372083 8.43009834 -7.4375 7.1875 C-9.85287838 6.77032721 -9.85287838 6.77032721 -12.4375 7.1875 C-17.55149598 12.30149598 -16.6522343 19.26865914 -16.6875 26 C-16.708125 26.97259766 -16.72875 27.94519531 -16.75 28.94726562 C-16.78169869 34.79963666 -16.3594353 39.06190943 -13.4375 44.1875 C-11.05866511 45.5134856 -11.05866511 45.5134856 -8.4375 45.1875 C-6.23420697 44.07059497 -6.23420697 44.07059497 -4.4375 42.1875 C-3.7424261 39.69342748 -3.7424261 39.69342748 -3.6875 37 C-3.63078125 36.09894531 -3.5740625 35.19789062 -3.515625 34.26953125 C-3.48984375 33.58246094 -3.4640625 32.89539063 -3.4375 32.1875 C-5.7475 32.1875 -8.0575 32.1875 -10.4375 32.1875 C-10.4375 29.5475 -10.4375 26.9075 -10.4375 24.1875 C-4.4975 24.1875 1.4425 24.1875 7.5625 24.1875 C7.5625 33.7575 7.5625 43.3275 7.5625 53.1875 C4.9225 53.1875 2.2825 53.1875 -0.4375 53.1875 C-0.7675 52.1975 -1.0975 51.2075 -1.4375 50.1875 C-2.035625 50.661875 -2.63375 51.13625 -3.25 51.625 C-7.63120879 54.75443485 -12.24630532 54.80084321 -17.4375 54.1875 C-23.10530799 51.62094544 -25.30404174 47.78919554 -27.4375 42.1875 C-28.85377114 37.36403343 -28.66099168 32.5526921 -28.6875 27.5625 C-28.7184375 26.14130859 -28.7184375 26.14130859 -28.75 24.69140625 C-28.79247777 16.92859288 -27.81216304 9.74949456 -23.4375 3.1875 C-17.41996286 -2.83003714 -7.47092911 -3.93921717 0 0 Z " fill="#F7F8F9" transform="translate(381.4375,55.8125)"/>
<path d="M0 0 C2.60709557 1.38483137 4.04873997 2.40158475 5.69140625 4.8984375 C6.30551665 7.93224787 6.50865206 10.79161623 6.69140625 13.8984375 C3.06140625 13.8984375 -0.56859375 13.8984375 -4.30859375 13.8984375 C-4.63859375 11.5884375 -4.96859375 9.2784375 -5.30859375 6.8984375 C-6.58734375 6.8365625 -7.86609375 6.7746875 -9.18359375 6.7109375 C-9.90289063 6.67613281 -10.6221875 6.64132813 -11.36328125 6.60546875 C-12.32621094 6.75048828 -12.32621094 6.75048828 -13.30859375 6.8984375 C-15.54919313 9.76362168 -15.54919313 9.76362168 -15.68359375 13.2109375 C-14.00075305 17.72401029 -12.82689741 18.0585648 -8.62109375 20.1484375 C-6.52288181 21.0786535 -4.41858832 21.99526639 -2.30859375 22.8984375 C1.748438 24.82942857 4.76882905 26.4346423 7.69140625 29.8984375 C9.13976814 34.24352318 9.21483396 38.35734845 8.69140625 42.8984375 C6.87890625 46.3359375 6.87890625 46.3359375 4.69140625 48.8984375 C4.27890625 49.4759375 3.86640625 50.0534375 3.44140625 50.6484375 C-2.20129644 54.67893942 -10.67657347 54.69902415 -17.30859375 53.8984375 C-21.05301301 52.64123684 -23.61399934 50.68265699 -26.24609375 47.7109375 C-27.77864151 43.65419342 -27.50217043 40.22164999 -27.30859375 35.8984375 C-23.67859375 35.8984375 -20.04859375 35.8984375 -16.30859375 35.8984375 C-16.18484375 37.0121875 -16.06109375 38.1259375 -15.93359375 39.2734375 C-15.66201245 42.92947427 -15.66201245 42.92947427 -13.30859375 44.8984375 C-9.80859375 45.23177083 -9.80859375 45.23177083 -6.30859375 44.8984375 C-4.12527686 43.13707395 -4.12527686 43.13707395 -4.11328125 40.953125 C-4.13648438 40.23382813 -4.1596875 39.51453125 -4.18359375 38.7734375 C-4.22484375 37.4946875 -4.26609375 36.2159375 -4.30859375 34.8984375 C-5.42234375 34.3415625 -6.53609375 33.7846875 -7.68359375 33.2109375 C-8.40804687 32.84355469 -9.1325 32.47617188 -9.87890625 32.09765625 C-11.54515102 31.27524927 -13.22893225 30.48771927 -14.92578125 29.73046875 C-24.0980011 25.5254006 -24.0980011 25.5254006 -26.30859375 19.8984375 C-27.02639905 13.20173624 -27.46126037 7.49381458 -23.30859375 1.8984375 C-16.11638519 -3.53241386 -8.18321215 -3.60391969 0 0 Z " fill="#F7F8F9" transform="translate(539.30859375,139.1015625)"/>
<path d="M0 0 C11.22 0 22.44 0 34 0 C34 2.97 34 5.94 34 9 C30.37 9 26.74 9 23 9 C23 23.85 23 38.7 23 54 C19.37 54 15.74 54 12 54 C12 39.15 12 24.3 12 9 C8.04 9 4.08 9 0 9 C0 6.03 0 3.06 0 0 Z " fill="#FAFBFC" transform="translate(417,55)"/>
<path d="M0 0 C3.63 0 7.26 0 11 0 C11 14.85 11 29.7 11 45 C17.27 45 23.54 45 30 45 C30 47.97 30 50.94 30 54 C20.1 54 10.2 54 0 54 C0 36.18 0 18.36 0 0 Z " fill="#F9FBFB" transform="translate(498,55)"/>
<path d="M0 0 C3.63 0 7.26 0 11 0 C11 17.82 11 35.64 11 54 C7.37 54 3.74 54 0 54 C0 36.18 0 18.36 0 0 Z " fill="#F5F7F9" transform="translate(398,55)"/>
<path d="M0 0 C3.63 0 7.26 0 11 0 C11 17.82 11 35.64 11 54 C7.37 54 3.74 54 0 54 C0 36.18 0 18.36 0 0 Z " fill="#F4F6F8" transform="translate(332,55)"/>
<path d="M0 0 C9 0 9 0 12.03125 2.18359375 C15.41141927 7.13043082 14.63926924 13.33030482 14.5 19.0625 C14.50257813 20.23361328 14.50515625 21.40472656 14.5078125 22.61132812 C14.39479756 32.51708785 14.39479756 32.51708785 11 37 C8 38 8 38 0 38 C0 25.46 0 12.92 0 0 Z " fill="#082C70" transform="translate(481,146)"/>
<path d="M0 0 C9 0 9 0 12.03125 2.21875 C15.32273328 7.03721006 14.64223027 12.90776431 14.5 18.5 C14.50257813 19.61503906 14.50515625 20.73007813 14.5078125 21.87890625 C14.38312456 32.34022467 14.38312456 32.34022467 11 37 C8 38 8 38 0 38 C0 25.46 0 12.92 0 0 Z " fill="#082C70" transform="translate(298,63)"/>
<path d="M0 0 C0.33 0.66 0.66 1.32 1 2 C1.66 2 2.32 2 3 2 C3.33 1.34 3.66 0.68 4 0 C4.66 0 5.32 0 6 0 C8.4010777 5.11067376 9.74049458 9.81194293 10.625 15.375 C10.81219604 16.49056274 10.81219604 16.49056274 11.00317383 17.62866211 C11.84439756 22.73796591 12.53109371 27.84203077 13 33 C12.34 32.67 11.68 32.34 11 32 C9.19933758 34.9465385 7.49836105 37.88801935 6 41 C5.34 41 4.68 41 4 41 C1 29 -2 17 -5 5 C-4.360625 4.731875 -3.72125 4.46375 -3.0625 4.1875 C-0.66868314 3.11332248 -0.66868314 3.11332248 0 0 Z " fill="#092D70" transform="translate(319,145)"/>
<path d="M0 0 C2.76763299 3.3047588 4.98861759 6.55589704 6.99609375 10.3671875 C7.54894043 11.40762207 8.10178711 12.44805664 8.67138672 13.52001953 C9.2542041 14.62716309 9.83702148 15.73430664 10.4375 16.875 C11.67639133 19.20422112 12.91665784 21.53261911 14.16015625 23.859375 C14.47525146 24.44949371 14.79034668 25.03961243 15.11499023 25.64761353 C20.23009391 35.19776974 25.62327559 44.59546294 31 54 C30.01 54.66 29.02 55.32 28 56 C25.94031321 52.27320997 23.88146109 48.54596019 21.82324219 44.81835938 C21.12943721 43.562061 20.43544003 42.30586875 19.74121094 41.04980469 C13.11403747 29.05870196 6.55297185 17.03178478 0 5 C-0.30518273 13.2247623 -0.5341216 21.44705089 -0.67355824 29.67612648 C-0.74058635 33.50018874 -0.83096704 37.32030179 -0.98071289 41.14208984 C-1.71481911 60.39110456 -0.81426158 74.67706606 11.29417419 90.67778015 C14.1998924 94.63346922 16.66167983 98.85870076 19.1875 103.0625 C20.0749429 104.49205421 20.96393733 105.92064823 21.85546875 107.34765625 C23.55296335 110.14340336 24.91832811 112.90001296 26 116 C25.01 116 24.02 116 23 116 C21.350768 113.56922895 19.91567044 111.18870724 18.5 108.625 C17.60832126 107.059012 16.7150376 105.49393696 15.8203125 103.9296875 C15.12663574 102.70910645 15.12663574 102.70910645 14.41894531 101.46386719 C12.14430024 97.51415658 9.76135201 93.63287785 7.375 89.75 C6.91971924 89.00234375 6.46443848 88.2546875 5.99536133 87.484375 C3.86546208 83.99386626 1.7080023 80.53105755 -0.54296875 77.1171875 C-1.12087158 76.22628418 -1.12087158 76.22628418 -1.71044922 75.31738281 C-2.73913319 73.73766697 -3.78495083 72.16914518 -4.83203125 70.6015625 C-6 68 -6 68 -5.19921875 65.6484375 C-4.80347656 65.10445313 -4.40773438 64.56046875 -4 64 C-3.67 64 -3.34 64 -3 64 C-2.98786972 62.84155075 -2.98786972 62.84155075 -2.97549438 61.65969849 C-2.89763453 54.39039503 -2.81037048 47.12129481 -2.71247292 39.85223579 C-2.6624733 36.11490738 -2.61614389 32.37760774 -2.578125 28.64013672 C-2.54131805 25.03495675 -2.49497123 21.43001541 -2.44193649 17.82503891 C-2.42336798 16.44793752 -2.40826912 15.07078494 -2.39665604 13.69360733 C-2.37983626 11.76845599 -2.34966518 9.84343517 -2.31884766 7.91845703 C-2.30552399 6.82147491 -2.29220032 5.7244928 -2.2784729 4.5942688 C-2 2 -2 2 0 0 Z " fill="#C70B16" transform="translate(113,46)"/>
<path d="M0 0 C3.62342508 1.6470114 6.16816086 3.4327343 8 7 C8.83931263 13.5046729 8.83931263 13.5046729 6.98046875 16.81640625 C4.83541289 19.50582673 3.28524531 20.90491823 0 22 C-3.375 22.375 -3.375 22.375 -7 22 C-10.15954305 19.45862841 -11.71540886 17.85377341 -13 14 C-13.57279236 6.8973747 -13.57279236 6.8973747 -11.125 3.0625 C-7.50882222 -0.44731961 -4.97588405 -0.33734807 0 0 Z " fill="#FBE8E6" transform="translate(161,185)"/>
<path d="M0 0 C0.33 0 0.66 0 1 0 C1.03738281 0.66386719 1.07476563 1.32773438 1.11328125 2.01171875 C1.47999117 9.10605092 1.47999117 9.10605092 5 15 C8.2283999 16.90876198 11.58624659 18.4542444 15 20 C22.7968254 23.7968254 22.7968254 23.7968254 24 25 C24.46023689 32.13367174 24.46023689 32.13367174 22.9375 35 C19.86784865 36.58433618 17.38318857 36.36248449 14 36 C12.0625 34.9375 12.0625 34.9375 11 33 C10.8125 29.3125 10.8125 29.3125 11 26 C10.34 26 9.68 26 9 26 C8.67 24.68 8.34 23.36 8 22 C5.36 21.67 2.72 21.34 0 21 C-0.28875 21.763125 -0.5775 22.52625 -0.875 23.3125 C-2 26 -2 26 -4 29 C-4.99 28.67 -5.98 28.34 -7 28 C-6.505 19.09 -6.505 19.09 -6 10 C-5.67 10 -5.34 10 -5 10 C-5 13.3 -5 16.6 -5 20 C-4.34 20 -3.68 20 -3 20 C-2.93941406 19.37351563 -2.87882812 18.74703125 -2.81640625 18.1015625 C-2.73261719 17.28429687 -2.64882813 16.46703125 -2.5625 15.625 C-2.48128906 14.81289062 -2.40007812 14.00078125 -2.31640625 13.1640625 C-2 11 -2 11 -1 9 C-0.77532169 7.46331135 -0.59203195 5.92031946 -0.4375 4.375 C-0.35371094 3.55773437 -0.26992188 2.74046875 -0.18359375 1.8984375 C-0.12300781 1.27195313 -0.06242187 0.64546875 0 0 Z " fill="#0A2D70" transform="translate(512,149)"/>
<path d="M0 0 C1.65 0 3.3 0 5 0 C5.99 4.29 6.98 8.58 8 13 C8.99 8.71 9.98 4.42 11 0 C12.65 0 14.3 0 16 0 C17.43023178 4.67209049 18.40380045 9.13103697 19 14 C19.20496094 13.15695313 19.40992187 12.31390625 19.62109375 11.4453125 C19.89050781 10.34960938 20.15992187 9.25390625 20.4375 8.125 C20.70433594 7.03445312 20.97117187 5.94390625 21.24609375 4.8203125 C22 2 22 2 23 0 C24.32 0 25.64 0 27 0 C26.26861959 4.88100189 25.15925104 9.60024152 23.9375 14.375 C23.75123047 15.11105469 23.56496094 15.84710938 23.37304688 16.60546875 C22.91752543 18.40419444 22.4590645 20.20217529 22 22 C20.35 22 18.7 22 17 22 C16.01 18.04 15.02 14.08 14 10 C13.67 10 13.34 10 13 10 C12.34 13.96 11.68 17.92 11 22 C9.35 22 7.7 22 6 22 C3.42756933 14.73225897 1.2794114 7.60913098 0 0 Z " fill="#FBEEED" transform="translate(82,185)"/>
<path d="M0 0 C2.0625 -0.061875 4.125 -0.12375 6.25 -0.1875 C7.99023438 -0.23970703 7.99023438 -0.23970703 9.765625 -0.29296875 C13.25024631 0.02266724 14.62619438 0.46328616 17 3 C17.25 6.4375 17.25 6.4375 17 10 C17 12.88435938 17.12290556 15.42179168 17.5 18.25 C17.7475 20.10625 17.7475 20.10625 18 22 C16.02 22 14.04 22 12 22 C11.67 19.69 11.34 17.38 11 15 C8.69 14.67 6.38 14.34 4 14 C4 16.64 4 19.28 4 22 C2.68 22 1.36 22 0 22 C0 14.74 0 7.48 0 0 Z " fill="#FCF5F3" transform="translate(175,185)"/>
<path d="M0 0 C1.65 0 3.3 0 5 0 C7.64 4.62 10.28 9.24 13 14 C13.33 9.38 13.66 4.76 14 0 C15.32 0 16.64 0 18 0 C18 7.26 18 14.52 18 22 C16.35 22 14.7 22 13 22 C9.04 15.07 9.04 15.07 5 8 C4.67 12.62 4.34 17.24 4 22 C2.68 22 1.36 22 0 22 C0 14.74 0 7.48 0 0 Z " fill="#FBE9E9" transform="translate(36,185)"/>
<path d="M0 0 C1.65 0 3.3 0 5 0 C5.33 2.31 5.66 4.62 6 7 C6.43570313 6.4946875 6.87140625 5.989375 7.3203125 5.46875 C12.24528302 0.09605489 12.24528302 0.09605489 16.4375 -0.4375 C17.283125 -0.293125 18.12875 -0.14875 19 0 C18.57847656 0.45890625 18.15695313 0.9178125 17.72265625 1.390625 C17.17480469 2.00421875 16.62695312 2.6178125 16.0625 3.25 C15.51722656 3.85328125 14.97195312 4.4565625 14.41015625 5.078125 C12.8441814 7.21236219 12.11900273 8.3472308 12 11 C13.41132194 13.6369123 13.41132194 13.6369123 15.4375 16.1875 C19 20.94911937 19 20.94911937 19 22 C16.3125 22.4375 16.3125 22.4375 13 22 C10.89292415 19.92559199 9.34439148 17.62929661 8 15 C8 14.34 8 13.68 8 13 C7.01 13.495 7.01 13.495 6 14 C5.53476937 15.89533342 5.53476937 15.89533342 5.375 18.0625 C5.189375 20.0115625 5.189375 20.0115625 5 22 C3.35 22 1.7 22 0 22 C0 14.74 0 7.48 0 0 Z " fill="#FBDAD9" transform="translate(199,185)"/>
<path d="M0 0 C5.28 0 10.56 0 16 0 C16 1.32 16 2.64 16 4 C12.04 4 8.08 4 4 4 C4 5.65 4 7.3 4 9 C7.63 9 11.26 9 15 9 C15 10.32 15 11.64 15 13 C11.37 13 7.74 13 4 13 C4 14.65 4 16.3 4 18 C7.96 18 11.92 18 16 18 C16 19.32 16 20.64 16 22 C10.72 22 5.44 22 0 22 C0 14.74 0 7.48 0 0 Z " fill="#FCFBFA" transform="translate(61,185)"/>
<path d="M0 0 C4.09469669 4.73386886 7.16457368 10.02771464 10.375 15.375 C11.61447667 17.42584572 12.85406346 19.47662488 14.09375 21.52734375 C15.05087891 23.11458252 15.05087891 23.11458252 16.02734375 24.73388672 C19.29501543 30.14414807 22.58601927 35.54017653 25.875 40.9375 C27.06000457 42.88404839 28.24491058 44.83065679 29.4296875 46.77734375 C30.17581299 48.00312134 30.17581299 48.00312134 30.93701172 49.25366211 C31.28779785 49.82995361 31.63858398 50.40624512 32 51 C31.01 51.66 30.02 52.32 29 53 C24.75077425 46.93708033 20.96868516 40.63719101 17.26098633 34.23583984 C14.65154391 29.74932783 11.96629825 25.32200665 9.20703125 20.92578125 C8.5625 19.89211426 7.91796875 18.85844727 7.25390625 17.79345703 C5.97359243 15.74514813 4.68341694 13.7029659 3.3828125 11.66748047 C2.50689453 10.26006592 2.50689453 10.26006592 1.61328125 8.82421875 C0.82111206 7.57257935 0.82111206 7.57257935 0.01293945 6.2956543 C-1 4 -1 4 -0.66333008 1.69848633 C-0.44443115 1.13798584 -0.22553223 0.57748535 0 0 Z " fill="#EC181B" transform="translate(36,47)"/>
<path d="M0 0 C2.76466734 2.76466734 2.62169375 5.59069116 3 9.3125 C3.16091956 10.76192431 3.32370865 12.21114217 3.48828125 13.66015625 C3.57029785 14.38734863 3.65231445 15.11454102 3.73681641 15.86376953 C4.25150701 20.04145302 4.99942386 24.18378419 5.73046875 28.328125 C5.98987732 30.89965343 5.81520532 32.57172883 5 35 C2.69 34.34 0.38 33.68 -2 33 C-2 32.34 -2 31.68 -2 31 C-2.66 31 -3.32 31 -4 31 C-3.17421321 24.32956693 -2.30915045 17.66458095 -1.4375 11 C-1.29892578 9.93910156 -1.16035156 8.87820312 -1.01757812 7.78515625 C-0.67858148 5.19007848 -0.33938408 2.59502712 0 0 Z " fill="#092D70" transform="translate(352,153)"/>
<path d="M0 0 C2.76763299 3.3047588 4.98861759 6.55589704 6.99609375 10.3671875 C7.54894043 11.40762207 8.10178711 12.44805664 8.67138672 13.52001953 C9.2542041 14.62716309 9.83702148 15.73430664 10.4375 16.875 C11.67639133 19.20422112 12.91665784 21.53261911 14.16015625 23.859375 C14.47525146 24.44949371 14.79034668 25.03961243 15.11499023 25.64761353 C20.23009391 35.19776974 25.62327559 44.59546294 31 54 C30.01 54.66 29.02 55.32 28 56 C23.74184986 48.2953181 19.48783446 40.58837886 15.24021912 32.87788391 C12.93179227 28.68810144 10.61743967 24.50164512 8.30078125 20.31640625 C7.22106383 18.35693079 6.14161847 16.39730538 5.0625 14.4375 C4.56137695 13.53563965 4.06025391 12.6337793 3.54394531 11.70458984 C3.08729492 10.87266113 2.63064453 10.04073242 2.16015625 9.18359375 C1.76449463 8.46743896 1.36883301 7.75128418 0.96118164 7.01342773 C0.00016998 5.00035607 -0.63062873 3.19923473 -1 1 C-0.67 0.67 -0.34 0.34 0 0 Z " fill="#E10D11" transform="translate(113,46)"/>
<path d="M0 0 C7.05882353 -0.35294118 7.05882353 -0.35294118 10.5 0.9375 C12.63426965 3.87212077 12.61932888 6.33500802 12.4453125 9.90234375 C12 12 12 12 9.9375 14.0625 C7 15 7 15 0 15 C0 10.05 0 5.1 0 0 Z " fill="#03276C" transform="translate(439,146)"/>
<path d="M0 0 C1.98 0 3.96 0 6 0 C7.32 2.64 8.64 5.28 10 8 C11.32 5.36 12.64 2.72 14 0 C15.65 0 17.3 0 19 0 C18.57847656 0.83402344 18.15695313 1.66804687 17.72265625 2.52734375 C14.48738794 9.17296547 12.2511696 14.59049674 12 22 C10.68 22 9.36 22 8 22 C7.979375 20.7625 7.95875 19.525 7.9375 18.25 C7.34864212 12.47183206 4.53442457 8.24801662 1.49609375 3.40625 C0 1 0 1 0 0 Z " fill="#FCF3F1" transform="translate(124,185)"/>
<path d="M0 0 C1.9962709 3.48913436 2.79109218 6.95816025 3.625 10.875 C3.88539063 12.06867188 4.14578125 13.26234375 4.4140625 14.4921875 C4.95735001 17.74466875 5.11061526 20.71170995 5 24 C1.7 24 -1.6 24 -5 24 C-3.20754717 3.20754717 -3.20754717 3.20754717 0 0 Z " fill="#0F3173" transform="translate(471,65)"/>
<path d="M0 0 C1.9962709 3.48913436 2.79109218 6.95816025 3.625 10.875 C3.88539063 12.06867188 4.14578125 13.26234375 4.4140625 14.4921875 C4.95735001 17.74466875 5.11061526 20.71170995 5 24 C1.7 24 -1.6 24 -5 24 C-4.29672885 18.84718635 -3.45096859 13.73763309 -2.5 8.625 C-2.30470703 7.54025391 -2.30470703 7.54025391 -2.10546875 6.43359375 C-1.11817756 1.11817756 -1.11817756 1.11817756 0 0 Z " fill="#0B2E70" transform="translate(402,148)"/>
<path d="M0 0 C2.70928069 2.70928069 2.84542048 5.01746777 3.625 8.75 C3.88539063 9.96171875 4.14578125 11.1734375 4.4140625 12.421875 C4.95063885 15.69856789 5.11171455 18.68918709 5 22 C1.7 22 -1.6 22 -5 22 C-4.35259036 17.15687791 -3.51971256 12.40745191 -2.5 7.625 C-2.2421875 6.40039062 -1.984375 5.17578125 -1.71875 3.9140625 C-1 1 -1 1 0 0 Z " fill="#0B2E71" transform="translate(304,150)"/>
<path d="M0 0 C2.9375 0.75 2.9375 0.75 4.9375 2.75 C5.37690752 6.70466772 5.50722219 8.90596712 3.25 12.25 C0.9375 13.75 0.9375 13.75 -1.6875 13.625 C-4.0625 12.75 -4.0625 12.75 -6.0625 10.75 C-6.36328125 8.65625 -6.36328125 8.65625 -6.375 6.25 C-6.39175781 5.4559375 -6.40851563 4.661875 -6.42578125 3.84375 C-6.24595703 2.80734375 -6.24595703 2.80734375 -6.0625 1.75 C-3.0625 -0.25 -3.0625 -0.25 0 0 Z " fill="#E90506" transform="translate(159.0625,189.25)"/>
<path d="M0 0 C2.96828749 5.07171424 1.58609276 9.82884574 0.625 15.3125 C0.47289062 16.24384766 0.32078125 17.17519531 0.1640625 18.13476562 C-0.21184997 20.42548226 -0.60019443 22.71335365 -1 25 C-3.84975774 22.15024226 -3.70800516 19.02590328 -4.125 15.1875 C-4.21136719 14.47529297 -4.29773438 13.76308594 -4.38671875 13.02929688 C-5.33329535 4.90827068 -5.33329535 4.90827068 -5 2 C-2 0 -2 0 0 0 Z " fill="#0C2F72" transform="translate(343,152)"/>
<path d="M0 0 C0.33 1.65 0.66 3.3 1 5 C-0.3921875 4.9071875 -0.3921875 4.9071875 -1.8125 4.8125 C-4.91222281 4.70057886 -4.91222281 4.70057886 -6.625 6.21875 C-8.28341732 8.36715426 -8.68718891 10.03200266 -9.1875 12.6875 C-9.42533203 13.89986328 -9.42533203 13.89986328 -9.66796875 15.13671875 C-9.77753906 15.75160156 -9.88710937 16.36648437 -10 17 C-10.66 17 -11.32 17 -12 17 C-13.23671367 13.28985899 -13.56368603 9.85561242 -13 6 C-9.2462563 0.11913487 -6.75563161 -0.12510429 0 0 Z " fill="#FCF1F0" transform="translate(161,185)"/>
<path d="M0 0 C2 3 2 3 2 7 C3.65 7 5.3 7 7 7 C6.67 8.32 6.34 9.64 6 11 C4.68 11 3.36 11 2 11 C2 13.64 2 16.28 2 19 C0.68 19 -0.64 19 -2 19 C-2.05380578 16.20807795 -2.09357669 13.4171859 -2.125 10.625 C-2.14175781 9.8309375 -2.15851563 9.036875 -2.17578125 8.21875 C-2.19335473 6.14507985 -2.10335168 4.07116759 -2 2 C-1.34 1.34 -0.68 0.68 0 0 Z " fill="#FCFDFB" transform="translate(177,188)"/>
<path d="M0 0 C3.31613478 4.2974524 6.00695964 8.88670359 8.75 13.5625 C9.26949219 14.42552734 9.78898438 15.28855469 10.32421875 16.17773438 C10.81019531 17.00724609 11.29617187 17.83675781 11.796875 18.69140625 C12.24385742 19.44623291 12.69083984 20.20105957 13.15136719 20.97875977 C14 23 14 23 13 26 C12.34 26 11.68 26 11 26 C6.71 18.41 2.42 10.82 -2 3 C-1.34 2.67 -0.68 2.34 0 2 C0 1.34 0 0.68 0 0 Z " fill="#EA1113" transform="translate(173,90)"/>
<path d="M0 0 C0.33 0.66 0.66 1.32 1 2 C2.98 2 4.96 2 7 2 C7.0270043 3.45823212 7.04639787 4.91660675 7.0625 6.375 C7.07410156 7.18710938 7.08570313 7.99921875 7.09765625 8.8359375 C7 11 7 11 6 13 C4.02 13 2.04 13 0 13 C-2.21474076 7.95531271 -1.85072153 5.14089313 0 0 Z " fill="#EB0506" transform="translate(192,189)"/>
<path d="M0 0 C2.79207078 2.79207078 2.45346197 5.56367926 2.625 9.3125 C2.69976562 10.62863281 2.77453125 11.94476563 2.8515625 13.30078125 C2.96820924 16.20774074 3.03375112 19.09177824 3 22 C1.68 22.33 0.36 22.66 -1 23 C-2.0188167 17.57818523 -1.86360471 13.00105558 -1.0625 7.5625 C-0.96259766 6.83095703 -0.86269531 6.09941406 -0.75976562 5.34570312 C-0.51502767 3.56261231 -0.25872147 1.78111558 0 0 Z " fill="#123375" transform="translate(352,153)"/>
<path d="M0 0 C2 1 2 1 2.8984375 3.6640625 C3.26195313 4.76492187 3.62546875 5.86578125 4 7 C5.15769836 9.15300464 6.36730311 11.27883851 7.625 13.375 C8.25664063 14.43460938 8.88828125 15.49421875 9.5390625 16.5859375 C10.02117187 17.38257812 10.50328125 18.17921875 11 19 C10.01 19.33 9.02 19.66 8 20 C6.2654442 17.4333925 4.56732925 14.84460559 2.875 12.25 C2.13443359 11.15558594 2.13443359 11.15558594 1.37890625 10.0390625 C0.92128906 9.33007812 0.46367188 8.62109375 -0.0078125 7.890625 C-0.43723145 7.24125977 -0.86665039 6.59189453 -1.30908203 5.92285156 C-2 4 -2 4 -1.12451172 1.75683594 C-0.75342285 1.17708008 -0.38233398 0.59732422 0 0 Z " fill="#DE080D" transform="translate(109,110)"/>
<path d="M0 0 C2.64 0 5.28 0 8 0 C8.38218767 1.65614657 8.71395102 3.32457024 9 5 C8 6 8 6 6.15234375 6.09765625 C4.1015625 6.06510417 2.05078125 6.03255208 0 6 C0 4.02 0 2.04 0 0 Z " fill="#ED181B" transform="translate(179,189)"/>
<path d="M0 0 C3.26906207 3.26906207 4.91626844 5.90695586 7 10 C6.67 10.66 6.34 11.32 6 12 C4.68 12 3.36 12 2 12 C1.34 12.99 0.68 13.98 0 15 C0 10.05 0 5.1 0 0 Z " fill="#ED2829" transform="translate(40,192)"/>
<path d="M0 0 C2.1875 0.0625 2.1875 0.0625 5 1 C10 6.5 10 6.5 10 9 C7.25 9.375 7.25 9.375 4 9 C1.36091208 5.87476431 0 4.13534147 0 0 Z " fill="#FCF3F0" transform="translate(208,198)"/>
<path d="M0 0 C-0.66 4.95 -1.32 9.9 -2 15 C-4.62451617 12.37548383 -4.5832868 10.5122172 -5.125 6.875 C-5.29257813 5.77929688 -5.46015625 4.68359375 -5.6328125 3.5546875 C-5.75398438 2.71164063 -5.87515625 1.86859375 -6 1 C-4 0 -4 0 0 0 Z " fill="#EC1415" transform="translate(93,185)"/>
<path d="M0 0 C0.99 0 1.98 0 3 0 C3 4.95 3 9.9 3 15 C2.01 15.33 1.02 15.66 0 16 C0 10.72 0 5.44 0 0 Z " fill="#FCFDFC" transform="translate(50,185)"/>
<path d="M0 0 C0.66 0 1.32 0 2 0 C2.33 2.31 2.66 4.62 3 7 C2.01 7.66 1.02 8.32 0 9 C0 9.99 0 10.98 0 12 C-1.5625 10.9375 -1.5625 10.9375 -3 9 C-2.66666667 2.66666667 -2.66666667 2.66666667 0 0 Z " fill="#1A3979" transform="translate(526,145)"/>
<path d="M0 0 C1.85683215 3.71366429 2.51111356 6.2158891 3.125 10.25 C3.29257813 11.32765625 3.46015625 12.4053125 3.6328125 13.515625 C3.75398438 14.33546875 3.87515625 15.1553125 4 16 C2.68 15.34 1.36 14.68 0 14 C0 13.34 0 12.68 0 12 C-0.66 12 -1.32 12 -2 12 C-1.34 8.04 -0.68 4.08 0 0 Z " fill="#EB191B" transform="translate(95,191)"/>
<path d="M0 0 C3.3 0 6.6 0 10 0 C9.34 1.65 8.68 3.3 8 5 C5.36 5 2.72 5 0 5 C0 3.35 0 1.7 0 0 Z " fill="#EB0C0D" transform="translate(65,198)"/>
<path d="M0 0 C2.64 0 5.28 0 8 0 C8.33 1.65 8.66 3.3 9 5 C6.03 5 3.06 5 0 5 C0 3.35 0 1.7 0 0 Z " fill="#EB0D0E" transform="translate(65,189)"/>
<path d="M0 0 C1.53760842 3.07521683 0.36599236 5.34675118 -0.4375 8.625 C-0.72496094 9.81351563 -1.01242188 11.00203125 -1.30859375 12.2265625 C-1.53675781 13.14179688 -1.76492187 14.05703125 -2 15 C-2.66 14.67 -3.32 14.34 -4 14 C-4.4140625 11.71484375 -4.4140625 11.71484375 -4.625 8.9375 C-4.69976562 8.01839844 -4.77453125 7.09929687 -4.8515625 6.15234375 C-4.90054688 5.44207031 -4.94953125 4.73179687 -5 4 C-4.34 3.67 -3.68 3.34 -3 3 C-1.9805881 2.01979625 -0.97753644 1.02196992 0 0 Z " fill="#EC2224" transform="translate(104,185)"/>
<path d="M0 0 C7 8.75 7 8.75 7 13 C5.171875 12.81640625 5.171875 12.81640625 3 12 C1.515625 9.71484375 1.515625 9.71484375 0.25 6.9375 C-0.39195312 5.55884766 -0.39195312 5.55884766 -1.046875 4.15234375 C-1.36140625 3.44207031 -1.6759375 2.73179688 -2 2 C-1.34 2 -0.68 2 0 2 C0 1.34 0 0.68 0 0 Z " fill="#ED1E20" transform="translate(173,90)"/>
<path d="M0 0 C0.33 0 0.66 0 1 0 C1 4.95 1 9.9 1 15 C-1.79442919 12.20557081 -3.01247132 10.2983705 -4.6875 6.8125 C-5.12449219 5.91144531 -5.56148437 5.01039063 -6.01171875 4.08203125 C-6.33785156 3.39496094 -6.66398437 2.70789063 -7 2 C-6.01 2.33 -5.02 2.66 -4 3 C-3.3125 5.0625 -3.3125 5.0625 -3 7 C-2.34 7 -1.68 7 -1 7 C-0.67 4.69 -0.34 2.38 0 0 Z " fill="#EE3D3E" transform="translate(49,185)"/>
<path d="M0 0 C0.99 0 1.98 0 3 0 C3 2.97 3 5.94 3 9 C3.66 9.33 4.32 9.66 5 10 C3.35 10.66 1.7 11.32 0 12 C0 8.04 0 4.08 0 0 Z " fill="#FCFDFB" transform="translate(200,185)"/>
<path d="M0 0 C3.00617269 3.00617269 2.59585316 5.82381598 3 10 C2.01 10 1.02 10 0 10 C-0.33 10.66 -0.66 11.32 -1 12 C-1.66 12 -2.32 12 -3 12 C-2.49202991 7.6822542 -1.80317221 3.96697886 0 0 Z " fill="#20407D" transform="translate(304,150)"/>
<path d="M0 0 C2.09412209 3.4029484 2.57805215 6.03621385 2 10 C-0.5 12.375 -0.5 12.375 -3 14 C-2.40380045 9.13103697 -1.43023178 4.67209049 0 0 Z " fill="#2A4882" transform="translate(402,148)"/>
<path d="M0 0 C0.66 0 1.32 0 2 0 C3.2890625 1.75 3.2890625 1.75 4.625 4 C5.07101563 4.7425 5.51703125 5.485 5.9765625 6.25 C6.31429687 6.8275 6.65203125 7.405 7 8 C6.01 8 5.02 8 4 8 C3.67 8.66 3.34 9.32 3 10 C3 9.01 3 8.02 3 7 C2.01 7.33 1.02 7.66 0 8 C-0.38063221 5.6739143 -0.71269945 3.33944736 -1 1 C-0.67 0.67 -0.34 0.34 0 0 Z " fill="#EA0E0F" transform="translate(205,198)"/>
<path d="M0 0 C1.32 0 2.64 0 4 0 C4 2.97 4 5.94 4 9 C1 8 1 8 -0.6875 4.9375 C-1.120625 3.968125 -1.55375 2.99875 -2 2 C-1.34 1.34 -0.68 0.68 0 0 Z " fill="#EB0F10" transform="translate(169,83)"/>
<path d="M0 0 C2.33524782 2.25740623 4.18705073 4.2805761 6 7 C5.625 9.1875 5.625 9.1875 5 11 C2.38114512 8.63055987 0.58133449 6.16266898 -1 3 C-0.67 2.01 -0.34 1.02 0 0 Z " fill="#EA1011" transform="translate(47,66)"/>
<path d="M0 0 C0.33 0.66 0.66 1.32 1 2 C2.32 1.67 3.64 1.34 5 1 C5 3.97 5 6.94 5 10 C1.91910327 7.22719294 0.31224548 4.93673644 -1 1 C-0.67 0.67 -0.34 0.34 0 0 Z " fill="#0C2466" transform="translate(136,153)"/>
<path d="M0 0 C1.32 0.33 2.64 0.66 4 1 C3.67 4.63 3.34 8.26 3 12 C0.50494038 9.50494038 0.64051624 8.32671112 0.375 4.875 C0.30023438 3.96492187 0.22546875 3.05484375 0.1484375 2.1171875 C0.09945313 1.41851562 0.05046875 0.71984375 0 0 Z " fill="#3C578C" transform="translate(339,165)"/>
<path d="M0 0 C1.125 1.75 1.125 1.75 2 4 C1.5 6.1875 1.5 6.1875 0 8 C-3.125 8.75 -3.125 8.75 -6 9 C-6.33 8.34 -6.66 7.68 -7 7 C-6.21625 6.5875 -5.4325 6.175 -4.625 5.75 C-1.94108344 3.9607223 -1.11901051 2.95011861 0 0 Z " fill="#284580" transform="translate(461,157)"/>
<path d="M0 0 C0.33 0.66 0.66 1.32 1 2 C1.66 2 2.32 2 3 2 C2.67 3.32 2.34 4.64 2 6 C0.68 6.33 -0.64 6.66 -2 7 C-2.6875 5.1875 -2.6875 5.1875 -3 3 C-1.5625 1.25 -1.5625 1.25 0 0 Z " fill="#0D2E71" transform="translate(307,94)"/>
<path d="M0 0 C1.32 0.33 2.64 0.66 4 1 C4 2.65 4 4.3 4 6 C3.34 6 2.68 6 2 6 C1.67 6.66 1.34 7.32 1 8 C0.67 5.36 0.34 2.72 0 0 Z " fill="#02276C" transform="translate(339,160)"/>
<path d="M0 0 C0.99 0.33 1.98 0.66 3 1 C4.1875 3.5625 4.1875 3.5625 5 6 C2.03 5.01 -0.94 4.02 -4 3 C-2.1875 1.4375 -2.1875 1.4375 0 0 Z " fill="#153677" transform="translate(532,156)"/>
<path d="M0 0 C1.65 0 3.3 0 5 0 C4.67 1.65 4.34 3.3 4 5 C2.68 4.67 1.36 4.34 0 4 C0 2.68 0 1.36 0 0 Z " fill="#E80101" transform="translate(180,189)"/>
<path d="M0 0 C1.98 0.66 3.96 1.32 6 2 C6.33 3.98 6.66 5.96 7 8 C6.01 8.495 6.01 8.495 5 9 C3.35 6.03 1.7 3.06 0 0 Z " fill="#102364" transform="translate(128,143)"/>
<path d="M0 0 C1.32 0 2.64 0 4 0 C4 1.32 4 2.64 4 4 C3.01 4 2.02 4 1 4 C0.67 4.66 0.34 5.32 0 6 C-0.66 4.68 -1.32 3.36 -2 2 C-1.34 2 -0.68 2 0 2 C0 1.34 0 0.68 0 0 Z " fill="#EB080B" transform="translate(218,201)"/>
<path d="M0 0 C0.66 0 1.32 0 2 0 C2 2.31 2 4.62 2 7 C1.01 7 0.02 7 -1 7 C-1.04254356 5.00045254 -1.04080783 2.99958364 -1 1 C-0.67 0.67 -0.34 0.34 0 0 Z " fill="#FCFDFC" transform="translate(201,200)"/>
<path d="M0 0 C0.66 0.33 1.32 0.66 2 1 C2.625 4.0625 2.625 4.0625 3 7 C1.0625 6.6875 1.0625 6.6875 -1 6 C-1.33 5.01 -1.66 4.02 -2 3 C-1.34 2.01 -0.68 1.02 0 0 Z " fill="#EB090A" transform="translate(109,110)"/>
<path d="M0 0 C1.65 0 3.3 0 5 0 C4.67 1.32 4.34 2.64 4 4 C2.68 4.33 1.36 4.66 0 5 C0 3.35 0 1.7 0 0 Z " fill="#0D2F71" transform="translate(474,98)"/>
<path d="M0 0 C1.4606285 2.64738916 2 3.89448334 2 7 C1.34 7 0.68 7 0 7 C0 7.66 0 8.32 0 9 C-0.66 9 -1.32 9 -2 9 C-1.125 1.125 -1.125 1.125 0 0 Z " fill="#355189" transform="translate(471,65)"/>
<path d="M0 0 C4.42857143 5.14285714 4.42857143 5.14285714 5 9 C3.0625 8.4375 3.0625 8.4375 1 7 C0.25 3.375 0.25 3.375 0 0 Z " fill="#EA1617" transform="translate(123,64)"/>
<path d="M0 0 C2.4375 0.6875 2.4375 0.6875 5 2 C5.8125 4.625 5.8125 4.625 6 7 C3.00675737 5.9024777 2.15389099 5.32317108 0.75 2.375 C0.5025 1.59125 0.255 0.8075 0 0 Z " fill="#EC1111" transform="translate(78,185)"/>
<path d="M0 0 C0.66 0 1.32 0 2 0 C3.6875 2.375 3.6875 2.375 5 5 C4.67 5.66 4.34 6.32 4 7 C3.34 7 2.68 7 2 7 C1.01 5.02 0.02 3.04 -1 1 C-0.67 0.67 -0.34 0.34 0 0 Z " fill="#E1151B" transform="translate(134,155)"/>
<path d="M0 0 C0.33 0.66 0.66 1.32 1 2 C1.99 2 2.98 2 4 2 C3.67 3.65 3.34 5.3 3 7 C2.01 6.67 1.02 6.34 0 6 C0 4.02 0 2.04 0 0 Z " fill="#EA1D1D" transform="translate(192,189)"/>
<path d="M0 0 C1.7074998 1.28062485 3.37373596 2.61767557 5 4 C5 4.66 5 5.32 5 6 C4.01 6.33 3.02 6.66 2 7 C0.4375 5.75 0.4375 5.75 -1 4 C-0.6875 1.8125 -0.6875 1.8125 0 0 Z " fill="#0E3171" transform="translate(458,137)"/>
<path d="M0 0 C0.33 0.66 0.66 1.32 1 2 C1.66 2 2.32 2 3 2 C2.67 3.32 2.34 4.64 2 6 C0.68 6.33 -0.64 6.66 -2 7 C-1.34 4.69 -0.68 2.38 0 0 Z " fill="#EA1414" transform="translate(185,117)"/>
<path d="M0 0 C1.32 0.33 2.64 0.66 4 1 C4 2.98 4 4.96 4 7 C1.49962266 4.82575883 0.56371414 3.26954202 0 0 Z " fill="#E70D0E" transform="translate(58,87)"/>
<path d="M0 0 C0.99 0 1.98 0 3 0 C2.625 2.4375 2.625 2.4375 2 5 C1.01 5.495 1.01 5.495 0 6 C-0.38218767 4.34385343 -0.71395102 2.67542976 -1 1 C-0.67 0.67 -0.34 0.34 0 0 Z " fill="#EC1517" transform="translate(133,188)"/>
<path d="M0 0 C1.98 0 3.96 0 6 0 C5.67 0.99 5.34 1.98 5 3 C4.01 3.33 3.02 3.66 2 4 C1.34 2.68 0.68 1.36 0 0 Z " fill="#002669" transform="translate(530,176)"/>
<path d="M0 0 C2.2477975 2.05233685 3.0022242 3.00667261 4 6 C3.01 6.33 2.02 6.66 1 7 C0.34 5.02 -0.32 3.04 -1 1 C-0.67 0.67 -0.34 0.34 0 0 Z " fill="#E80B0D" transform="translate(107,164)"/>
<path d="M0 0 C0.66 0 1.32 0 2 0 C1.67 2.31 1.34 4.62 1 7 C0.01 6.34 -0.98 5.68 -2 5 C-1.34 3.35 -0.68 1.7 0 0 Z " fill="#1E3E7D" transform="translate(389,154)"/>
</svg>
